<svg aria-hidden="true" style="position:absolute;width:0;height:0" xmlns="http://www.w3.org/2000/svg" overflow="hidden"><defs><symbol id="close-menu" viewBox="0 0 32 32"><path fill="none" stroke="var(--color1, #fff)" stroke-width="2" d="M2.519 2l26.963 28M2 29.481L30 2.518"/></symbol><symbol id="burger" viewBox="0 0 46 32"><path fill="none" stroke="var(--color2, #d41443)" stroke-width="2.286" d="M0 2.286h45.714M0 16h45.714M0 29.714h45.714"/></symbol><symbol id="icon-facebook" viewBox="0 0 32 32"><path fill="var(--color1, #fff)" d="M22.143 15.972h-4.034v14.865h-6.112V15.972H9.09v-5.224h2.907V7.367c0-2.418 1.142-6.203 6.166-6.203l4.527.019v5.071h-3.285c-.539 0-1.296.271-1.296 1.424v3.075h4.567l-.534 5.219z"/></symbol><symbol id="icon-telegam" viewBox="0 0 32 32"><path fill="var(--color1, #fff)" d="M12.613 19.671l-.491 6.444c.702 0 1.006-.282 1.371-.62l3.293-2.937 6.822 4.663c1.251.651 2.133.308 2.47-1.074l4.478-19.585.001-.001c.397-1.726-.669-2.401-1.888-1.978L2.346 13.989c-1.796.651-1.769 1.585-.305 2.009l6.73 1.954 15.632-9.129c.736-.455 1.404-.203.854.252L12.612 19.672z"/></symbol><symbol id="icon-github" viewBox="0 0 32 32"><path fill="var(--color1, #fff)" d="M16 0C7.212 0 0 7.212 0 16c0 7.499 5.262 14.312 12.25 16v-5.293c-.692.152-1.33.156-2.034-.052-.946-.279-1.714-.909-2.284-1.869-.364-.613-1.008-1.278-1.68-1.23l-.165-1.868c1.453-.124 2.711.886 3.457 2.14.332.558.713.884 1.203 1.029.473.14.982.072 1.574-.137.149-1.186.692-1.63 1.102-2.255v-.001c-4.167-.622-5.828-2.832-6.488-4.578-.874-2.317-.405-5.212 1.14-7.041.03-.036.084-.129.063-.194-.708-2.139.155-3.909.187-4.097.817.242.95-.243 3.551 1.337l.449.27c.188.112.129.048.317.034A13.544 13.544 0 0116 7.723c1.136.015 2.273.178 3.404.484l.145.015c-.013-.002.04-.009.127-.062 3.248-1.968 3.132-1.324 4.003-1.608.032.188.883 1.987.182 4.099-.095.291 2.816 2.956 1.203 7.235-.659 1.746-2.32 3.957-6.487 4.578v.001c.534.814 1.176 1.247 1.173 2.927V32C26.738 30.312 32 23.499 32 16c0-8.788-7.212-16-16-16z"/></symbol><symbol id="comment-quote" viewBox="0 0 32 32"><path fill="var(--color3, #e1e1e1)" d="M23.714 4.148c1.429 0 2.778.385 4.048 1.156s2.302 1.879 3.095 3.324C31.619 10.073 32 11.776 32 13.735s-.476 3.87-1.429 5.733c-.317.674-.889 1.542-1.714 2.602a46.992 46.992 0 01-2.381 2.746l-3 3.035-2.143-3.565a16.303 16.303 0 003.952-3.469c1.143-1.349 1.714-2.586 1.714-3.71 0-.578-.127-1.044-.381-1.397a6.191 6.191 0 01-3.714 1.204c-.984 0-1.921-.305-2.81-.915a6.333 6.333 0 01-2.19-2.313c-.571-.931-.857-1.895-.857-2.891 0-1.124.333-2.2 1-3.228a7.568 7.568 0 012.524-2.505c1.016-.61 2.063-.915 3.143-.915zm-17.095 0c1.429 0 2.778.385 4.048 1.156s2.302 1.879 3.095 3.324c.762 1.445 1.143 3.148 1.143 5.107 0 1.381-.175 2.618-.524 3.71-.349 1.124-.952 2.297-1.81 3.517-.825 1.156-1.603 2.12-2.333 2.891-.73.803-2 2.136-3.81 3.999l-2.143-3.565a16.303 16.303 0 003.952-3.469c1.143-1.349 1.714-2.586 1.714-3.71 0-.578-.127-1.044-.381-1.397a6.191 6.191 0 01-3.714 1.204c-.984 0-1.921-.305-2.81-.915a6.333 6.333 0 01-2.19-2.313c-.571-.931-.857-1.895-.857-2.891 0-1.124.317-2.2.952-3.228s1.476-1.863 2.524-2.505c1.016-.61 2.063-.915 3.143-.915z"/></symbol><symbol id="comment-icon" viewBox="0 0 32 32"><path fill="var(--color4, #d31342)" d="M31.618 15.643c.553-.608.5-1.541-.119-2.082L17.863 1.63c-.619-.541-1.611-.53-2.217.026L1.964 14.198a1.446 1.446 0 00-.066 2.079l.343.357c.569.592 1.489.663 2.053.157l1.023-.916v13.406c0 .823.666 1.488 1.488 1.488h5.333c.822 0 1.488-.666 1.488-1.488v-9.379h6.803v9.379c-.012.822.576 1.488 1.398 1.488h5.652c.822 0 1.488-.666 1.488-1.488V16.064l.631.554c.349.307 1.078.061 1.631-.548l.388-.426z"/></symbol><symbol id="comment-circle-grey" viewBox="0 0 32 32"><path fill="var(--color5, #d9d9d9)" d="M32 16c0 8.837-7.163 16-16 16S0 24.837 0 16 7.163 0 16 0s16 7.163 16 16z"/></symbol><symbol id="comment-circle" viewBox="0 0 32 32"><path fill="var(--color6, #c7133e)" d="M18 16a2 2 0 11-3.999.001A2 2 0 0118 16zM4 16a2 2 0 11-3.999.001A2 2 0 014 16zm28 0a2 2 0 11-3.999.001A2 2 0 0132 16z"/></symbol><symbol id="product-circle" viewBox="0 0 32 32"><path fill="var(--color1, #fff)" d="M19.692 16a3.692 3.692 0 11-7.384 0 3.692 3.692 0 017.384 0zM7.385 16a3.692 3.692 0 11-7.384 0 3.692 3.692 0 017.384 0zM32 16a3.692 3.692 0 11-7.384 0A3.692 3.692 0 0132 16z"/></symbol><symbol id="header-circle-pink" viewBox="0 0 32 32"><path fill="var(--color7, #ffa5ba)" d="M32 16c0 8.837-7.163 16-16 16S0 24.837 0 16 7.163 0 16 0s16 7.163 16 16z"/></symbol><symbol id="header-circle-svg" viewBox="0 0 32 32"><path fill="var(--color1, #fff)" d="M32 16c0 8.837-7.163 16-16 16S0 24.837 0 16 7.163 0 16 0s16 7.163 16 16z"/></symbol><symbol id="btn-arrow" viewBox="0 0 32 32"><path fill="none" stroke="var(--color2, #d41443)" stroke-linejoin="round" stroke-linecap="round" stroke-width="6.4" d="M9.6 3.2L22.4 16 9.6 28.8"/></symbol><symbol id="btn-arrow-white" viewBox="0 0 32 32"><path d="M9.828 31.907l-3.797-3.794a.315.315 0 010-.446l11.454-11.445a.313.313 0 000-.445L6.031 4.332a.315.315 0 010-.446L9.829.092a.315.315 0 01.446 0L25.972 15.78a.313.313 0 010 .444L10.275 31.912a.31.31 0 01-.445-.005z"/></symbol></defs></svg>